<?xml version="1.0" encoding="utf-8"?>
<!-- Generator: Adobe Illustrator 24.0.1, SVG Export Plug-In . SVG Version: 6.00 Build 0)  -->
<svg version="1.1" id="Layer_1" xmlns="http://www.w3.org/2000/svg" xmlns:xlink="http://www.w3.org/1999/xlink" x="0px" y="0px"
	 viewBox="0 0 410 404" style="enable-background:new 0 0 410 404;" xml:space="preserve">
<style type="text/css">
	.st0{fill:url(#SVGID_1_);}
	.st1{fill:url(#SVGID_2_);}
	.st2{fill:url(#SVGID_3_);}
</style>
<linearGradient id="SVGID_1_" gradientUnits="userSpaceOnUse" x1="46.5865" y1="282.0862" x2="360.9115" y2="282.0862">
	<stop  offset="0" style="stop-color:#41D1FF"/>
	<stop  offset="1" style="stop-color:#BD34FE"/>
</linearGradient>
<path class="st0" d="M361,220.5l-142.1,73.5c-1.9,1-4.1,1-6,0L71.2,220.5c-2.1-1.1-3.4-3.2-3.4-5.6v-14.3c0-2.3,1.3-4.5,3.4-5.6
	l142.1-73.5c1.9-1,4.1-1,6,0l142.1,73.5c2.1,1.1,3.4,3.2,3.4,5.6v14.3C364.4,217.3,363.1,219.4,361,220.5z"/>
<linearGradient id="SVGID_2_" gradientUnits="userSpaceOnUse" x1="46.5865" y1="121.9138" x2="360.9115" y2="121.9138">
	<stop  offset="0" style="stop-color:#41D1FF"/>
	<stop  offset="1" style="stop-color:#BD34FE"/>
</linearGradient>
<path class="st1" d="M361,183.5l-142.1-73.5c-1.9-1-4.1-1-6,0L71.2,183.5c-2.1,1.1-3.4,3.2-3.4,5.6v14.3c0,2.3,1.3,4.5,3.4,5.6
	l142.1,73.5c1.9,1,4.1,1,6,0l142.1-73.5c2.1-1.1,3.4-3.2,3.4-5.6v-14.3C364.4,186.7,363.1,184.5,361,183.5z"/>
<linearGradient id="SVGID_3_" gradientUnits="userSpaceOnUse" x1="46.5865" y1="202" x2="360.9115" y2="202">
	<stop  offset="0" style="stop-color:#41D1FF"/>
	<stop  offset="1" style="stop-color:#BD34FE"/>
</linearGradient>
<path class="st2" d="M361,183.5l-142.1-73.5c-1.9-1-4.1-1-6,0L71.2,183.5c-2.1,1.1-3.4,3.2-3.4,5.6v14.3c0,2.3,1.3,4.5,3.4,5.6
	l142.1,73.5c1.9,1,4.1,1,6,0l142.1-73.5c2.1-1.1,3.4-3.2,3.4-5.6v-14.3C364.4,186.7,363.1,184.5,361,183.5z"/>
</svg>